<?xml version="1.0" encoding="UTF-8"?><svg id="a" xmlns="http://www.w3.org/2000/svg" width="512" height="512" viewBox="0 0 512 512"><g id="b"><path d="m364.31,111.5C285.25,32.45,209.33,8.18,190.93,33.62c-5.48,7.04-27.79,34.83-45.79,59.88-54.4-23.87-91.58-12.52-109.58,9.39-21.53,25.44-25.83,72.01,16.44,122.89,24.26,28.96,70.84,46.57,116.63,42.27,4.31-16.83,21.92-27.4,39.14-22.7,16.83,4.31,27.4,21.92,22.7,39.14-4.31,16.83-21.92,27.4-39.14,22.7-5.09-1.17-10.18-3.91-14.09-7.83-56.36,7.04-113.11-11.35-146.76-48.92-4.31,5.87-14.09,16.44-16.44,19.57-7.83,10.96,1.57,74.36,59.49,132.28,57.92,57.92,121.32,67.32,132.28,59.49,10.96-7.83,210.56-157.33,235.99-176.51,25.44-19.18,1.57-94.71-77.49-173.77Zm-304.48,11.74c9.78-11.35,31.7-16.83,65.36-3.52l-55.18,76.32c-20.74-30.92-21.53-59.1-10.18-72.79Zm223.08,69.66c-57.92-57.92-77.49-120.54-69.27-128.76,7.83-7.83,70.05,12.13,127.98,70.05,57.92,57.92,78.27,119.76,70.05,127.98s-70.45-11.74-128.76-69.27h0Zm118.14,247.9c0-27.89,50.5-106.61,50.5-106.61,0,0,50.5,78.72,50.5,106.61s-22.61,50.5-50.5,50.5-50.5-22.61-50.5-50.5Z" style="fill:#010101; stroke-width:0px;"/></g></svg>